<svg xmlns="http://www.w3.org/2000/svg" viewBox="0 0 40 40"><path d="M4.5 10.1h9.4c1.7 0 3.1.4 4.2 1.2 1 .8 1.6 2 1.6 3.6 0 1-.2 1.8-.7 2.5s-1.2 1.2-2 1.6c1.2.3 2.1.8 2.7 1.7.6.9.9 2 .9 3.3 0 .8-.1 1.5-.4 2.1-.3.7-.7 1.2-1.3 1.7-.6.5-1.3.9-2.2 1.1-.9.3-2 .4-3.2.4h-9V10.1zm3.4 8.1h5.5c.8 0 1.5-.2 2-.7s.8-1.1.8-2c0-1-.2-1.7-.7-2.1-.5-.4-1.2-.6-2.1-.6H7.9v5.4zm0 8.4h6c1 0 1.8-.3 2.4-.8.6-.5.9-1.3.9-2.3 0-1-.3-1.7-.9-2.2-.6-.5-1.4-.8-2.4-.8h-6v6.1zm15.7-16.5h13.3V13H27v5h8.7v2.8H27v8.6h-3.4V10.1z" fill="#FFF"/></svg>