<svg xmlns="http://www.w3.org/2000/svg" viewBox="0 227 500 53"><path d="M6.3 242.1h70.4V254H6.3zm-4 16.4H71v6.2H2.3zm10.4 10.2h67.7v4.6H12.7zm117.5-2.5l-8.3-24.1h-5.6l-7.8 24.1h-.2l-7.1-24.1h-5.8l10.2 31.2h5.2l7.9-24.1h.1l8.9 24.1h5.2l10-31.2h-5.6zm34.8-24.9c-9.6 0-16.7 6.7-16.7 16.3 0 9.8 7.1 16.3 16.7 16.3s16.7-6.7 16.7-16.3c0-9.7-7.1-16.3-16.7-16.3zm0 27.9c-6.7 0-11.2-5-11.2-11.5s4.4-11.5 11.2-11.5 11.2 5 11.2 11.5-4.5 11.5-11.2 11.5zm31.2-21.9c-.2-1.7-.2-3.5-.2-5.2h-5c0 2.1.2 4.6.2 7.3v23.8h5.2V258c0-7.1 2.9-11.5 9-11.5 1 0 1.9.2 2.9.4l.4-5.2c-.8-.2-1.5-.4-2.1-.4-5.3 0-9.1 2.9-10.4 6zm65.5 7.7c-4-.8-7.9-1.9-7.9-4.6 0-2.9 3.3-4.4 6.2-4.4 3.1 0 5.2 1.5 6.5 3.7l4.4-2.9c-2.1-4-6.2-5.6-10.6-5.6-5.8 0-11.7 3.1-11.7 9.2 0 6.5 5 7.7 11 9 3.3.8 6.7 1.5 6.7 5s-3.7 4.8-6.9 4.8c-3.7 0-6-1.7-8.1-4.2l-4 3.3c3.1 4.4 6.9 5.8 12.1 5.8 6.2 0 12.5-2.7 12.5-9.8 0-6.2-4.6-8.3-10.2-9.3zm31.4 14.2c-4.6 0-4.6-3.3-4.6-7.1v-15.6h9.2v-4.4h-9.2v-8.8h-5.2v8.8h-6.7v4.4h6.7v17.1c0 6.5 1.2 10.4 8.7 10.4 1.9 0 4.2-.4 6.2-1.2l-.2-4.8c-1.7 1-3.4 1.2-4.9 1.2zm37.5-14.8c0-8.8-3.8-13.3-13.1-13.3-4.6 0-9.2 1.5-12.3 4.8l3.3 3.5c2.5-2.3 6-3.5 9.2-3.5 4.8 0 7.7 2.3 7.7 6.9v1h-1.9c-7.7 0-19.6.6-19.6 11 0 6.2 5.2 9.2 11.5 9.2 4.8 0 8.3-2.3 10.2-5.4h.2c0 1.3 0 3.3.4 4.6h5c-.2-1.5-.4-3.7-.4-5.4l-.2-13.4zm-5.2 5.8c-.2 5-3.3 9.4-9.2 9.4-3.8 0-6.9-1.5-6.9-5.4 0-4.2 4.2-6 10.8-6h5.2l.1 2zm30.4-14c3.1 0 5.6 1.2 7.9 3.8l4-3.7c-3.1-3.5-7.3-5-11.9-5-9.6 0-16.2 6.9-16.2 16.3 0 9.6 6.5 16.3 16.2 16.3 4.6 0 8.8-1.5 11.7-5l-3.8-3.7c-1.9 2.7-4.6 3.8-7.9 3.8-6.3 0-10.6-5.2-10.6-11.5 0-6.2 3.6-11.3 10.6-11.3zm-112.9-4.1h-7.5l-14.2 13.7v-23.1H216v40.6h5.2v-16.4l15.5 16.4h7.7l-16.7-17zm158.8 0h-7.3l-14.2 13.7v-23.1H375v40.6h5.2v-16.4l15.4 16.4h7.7l-16.6-17z" fill="#ABABBF"/></svg>