<?xml version="1.0" encoding="utf-8"?>
<!-- Generator: Adobe Illustrator 18.1.1, SVG Export Plug-In . SVG Version: 6.00 Build 0)  -->
<svg version="1.1" id="Layer_1" xmlns="http://www.w3.org/2000/svg" xmlns:xlink="http://www.w3.org/1999/xlink" x="0px" y="0px"
	 viewBox="0 0 40 40" enable-background="new 0 0 40 40" xml:space="preserve">
<g>
	<path fill="#FFFFFF" d="M4.5,10.1h9.4c1.7,0,3.1,0.4,4.2,1.2c1,0.8,1.6,2,1.6,3.6c0,1-0.2,1.8-0.7,2.5s-1.2,1.2-2,1.6V19
		c1.2,0.3,2.1,0.8,2.7,1.7c0.6,0.9,0.9,2,0.9,3.3c0,0.8-0.1,1.5-0.4,2.1c-0.3,0.7-0.7,1.2-1.3,1.7c-0.6,0.5-1.3,0.9-2.2,1.1
		c-0.9,0.3-2,0.4-3.2,0.4H4.5V10.1z M7.9,18.2h5.5c0.8,0,1.5-0.2,2-0.7s0.8-1.1,0.8-2c0-1-0.2-1.7-0.7-2.1c-0.5-0.4-1.2-0.6-2.1-0.6
		H7.9V18.2z M7.9,26.6h6c1,0,1.8-0.3,2.4-0.8c0.6-0.5,0.9-1.3,0.9-2.3c0-1-0.3-1.7-0.9-2.2c-0.6-0.5-1.4-0.8-2.4-0.8h-6V26.6z"/>
	<path fill="#FFFFFF" d="M23.6,10.1h13.3V13h-9.9v5h8.7v2.8h-8.7v8.6h-3.4V10.1z"/>
</g>
</svg>
