<?xml version="1.0" encoding="utf-8"?>
<!-- Generator: Adobe Illustrator 18.1.1, SVG Export Plug-In . SVG Version: 6.00 Build 0)  -->
<svg version="1.1" id="Layer_1" xmlns="http://www.w3.org/2000/svg" xmlns:xlink="http://www.w3.org/1999/xlink" x="0px" y="0px"
	 viewBox="0 0 20 20" enable-background="new 0 0 20 20" xml:space="preserve">
<path fill="#FFFFFF" d="M10,4.7c0,0-5.5-0.3-6.6,8c0,0,1.1,2.5,6.6,2.6v0c0,0,0,0,0,0c0,0,0,0,0,0v0c5.5-0.1,6.6-2.6,6.6-2.6
	C15.5,4.4,10,4.7,10,4.7z M14.4,13.6c-1.6,0.9-3.6,0.9-5,0.9s-4.2-0.5-5-2.1c0,0,1.1-3.6,2.5-3.6c0.4,0,0.5,0.2,1.1,0.9
	c0.6,0.7,1.2,0.1,1.2,0.1s1.3-1.6,1.8-2.1c0.4-0.5,0.6-0.7,1.1-0.3c0.6,0.5,2.5,2.2,3.3,4.2C15.3,11.7,16,12.7,14.4,13.6z"/>
</svg>
